<svg width="64" height="64" viewBox="0 0 64 64" fill="none" xmlns="http://www.w3.org/2000/svg">
  <defs>
    <linearGradient id="nb-gradient" x1="10" y1="8" x2="54" y2="54" gradientUnits="userSpaceOnUse">
      <stop offset="0" stop-color="#3B82F6" />
      <stop offset="0.5" stop-color="#8B5CF6" />
      <stop offset="1" stop-color="#F97316" />
    </linearGradient>
    <linearGradient id="nb-sheet" x1="16" y1="14" x2="44" y2="48" gradientUnits="userSpaceOnUse">
      <stop offset="0" stop-color="#FFFFFF" stop-opacity="0.95" />
      <stop offset="1" stop-color="#E2E8F0" stop-opacity="0.8" />
    </linearGradient>
  </defs>
  <rect x="6" y="6" width="52" height="52" rx="16" fill="url(#nb-gradient)" />
  <g filter="url(#nb-shadow)">
    <path d="M20 16h20c1.657 0 3 1.343 3 3v22c0 1.657-1.343 3-3 3H20c-1.657 0-3-1.343-3-3V19c0-1.657 1.343-3 3-3z" fill="url(#nb-sheet)" />
    <path d="M24 24h12" stroke="#6366F1" stroke-width="2.5" stroke-linecap="round" />
    <path d="M24 30h16" stroke="#3B82F6" stroke-width="2.5" stroke-linecap="round" />
    <path d="M24 36h9" stroke="#F97316" stroke-width="2.5" stroke-linecap="round" />
  </g>
  <path d="M41 42.5l5.5 5.5" stroke="#1E293B" stroke-width="3" stroke-linecap="round" />
  <circle cx="37.5" cy="39" r="6.5" stroke="#1E293B" stroke-width="3" fill="#fff" fill-opacity="0.85" />
  <defs>
    <filter id="nb-shadow" x="11" y="11" width="42" height="42" filterUnits="userSpaceOnUse" color-interpolation-filters="sRGB">
      <feOffset dy="2" />
      <feGaussianBlur stdDeviation="2" />
      <feColorMatrix type="matrix" values="0 0 0 0 0 0 0 0 0 0 0 0 0 0 0 0 0 0 0.12 0" />
      <feBlend mode="normal" in2="SourceGraphic" result="nb-shadow" />
    </filter>
  </defs>
</svg>
