<svg xmlns="http://www.w3.org/2000/svg" width="1200" height="627" viewBox="0 0 1200 627">
    <defs>
        <linearGradient id="bg" x1="0%" y1="0%" x2="100%" y2="100%">
            <stop offset="0%" style="stop-color:#0f172a" />
            <stop offset="50%" style="stop-color:#1e293b" />
            <stop offset="100%" style="stop-color:#0f172a" />
        </linearGradient>
        <linearGradient id="accent" x1="0%" y1="0%" x2="100%" y2="0%">
            <stop offset="0%" style="stop-color:#6366f1" />
            <stop offset="100%" style="stop-color:#8b5cf6" />
        </linearGradient>
        <linearGradient id="card1" x1="0%" y1="0%" x2="100%" y2="100%">
            <stop offset="0%" style="stop-color:#1e293b" />
            <stop offset="100%" style="stop-color:#334155" />
        </linearGradient>
        <linearGradient id="greenAccent" x1="0%" y1="0%" x2="100%" y2="0%">
            <stop offset="0%" style="stop-color:#22c55e" />
            <stop offset="100%" style="stop-color:#10b981" />
        </linearGradient>
        <filter id="glow">
            <feGaussianBlur stdDeviation="3" result="blur" />
            <feMerge>
                <feMergeNode in="blur" />
                <feMergeNode in="SourceGraphic" />
            </feMerge>
        </filter>
        <filter id="shadow">
            <feDropShadow dx="0" dy="4" stdDeviation="8" flood-color="#000" flood-opacity="0.3" />
        </filter>
        <filter id="softShadow">
            <feDropShadow dx="0" dy="2" stdDeviation="4" flood-color="#000" flood-opacity="0.2" />
        </filter>
    </defs>

    <!-- Background -->
    <rect width="1200" height="627" fill="url(#bg)" />

    <!-- Subtle grid pattern -->
    <g opacity="0.04">
        <line x1="0" y1="0" x2="0" y2="627" stroke="#fff" stroke-width="1" />
        <line x1="60" y1="0" x2="60" y2="627" stroke="#fff" stroke-width="1" />
        <line x1="120" y1="0" x2="120" y2="627" stroke="#fff" stroke-width="1" />
        <line x1="180" y1="0" x2="180" y2="627" stroke="#fff" stroke-width="1" />
        <line x1="240" y1="0" x2="240" y2="627" stroke="#fff" stroke-width="1" />
        <line x1="300" y1="0" x2="300" y2="627" stroke="#fff" stroke-width="1" />
        <line x1="360" y1="0" x2="360" y2="627" stroke="#fff" stroke-width="1" />
        <line x1="420" y1="0" x2="420" y2="627" stroke="#fff" stroke-width="1" />
        <line x1="480" y1="0" x2="480" y2="627" stroke="#fff" stroke-width="1" />
        <line x1="540" y1="0" x2="540" y2="627" stroke="#fff" stroke-width="1" />
        <line x1="600" y1="0" x2="600" y2="627" stroke="#fff" stroke-width="1" />
        <line x1="660" y1="0" x2="660" y2="627" stroke="#fff" stroke-width="1" />
        <line x1="720" y1="0" x2="720" y2="627" stroke="#fff" stroke-width="1" />
        <line x1="780" y1="0" x2="780" y2="627" stroke="#fff" stroke-width="1" />
        <line x1="840" y1="0" x2="840" y2="627" stroke="#fff" stroke-width="1" />
        <line x1="900" y1="0" x2="900" y2="627" stroke="#fff" stroke-width="1" />
        <line x1="960" y1="0" x2="960" y2="627" stroke="#fff" stroke-width="1" />
        <line x1="1020" y1="0" x2="1020" y2="627" stroke="#fff" stroke-width="1" />
        <line x1="1080" y1="0" x2="1080" y2="627" stroke="#fff" stroke-width="1" />
        <line x1="1140" y1="0" x2="1140" y2="627" stroke="#fff" stroke-width="1" />
        <line x1="1200" y1="0" x2="1200" y2="627" stroke="#fff" stroke-width="1" />
        <line x1="0" y1="60" x2="1200" y2="60" stroke="#fff" stroke-width="1" />
        <line x1="0" y1="120" x2="1200" y2="120" stroke="#fff" stroke-width="1" />
        <line x1="0" y1="180" x2="1200" y2="180" stroke="#fff" stroke-width="1" />
        <line x1="0" y1="240" x2="1200" y2="240" stroke="#fff" stroke-width="1" />
        <line x1="0" y1="300" x2="1200" y2="300" stroke="#fff" stroke-width="1" />
        <line x1="0" y1="360" x2="1200" y2="360" stroke="#fff" stroke-width="1" />
        <line x1="0" y1="420" x2="1200" y2="420" stroke="#fff" stroke-width="1" />
        <line x1="0" y1="480" x2="1200" y2="480" stroke="#fff" stroke-width="1" />
        <line x1="0" y1="540" x2="1200" y2="540" stroke="#fff" stroke-width="1" />
    </g>

    <!-- Decorative circles -->
    <circle cx="950" cy="100" r="200" fill="#6366f1" opacity="0.05" />
    <circle cx="150" cy="500" r="150" fill="#8b5cf6" opacity="0.04" />
    <circle cx="1100" cy="500" r="120" fill="#22c55e" opacity="0.03" />

    <!-- ===== LEFT SIDE: Title & Info ===== -->

    <!-- Logo icon - stylized notebook -->
    <g transform="translate(80, 140)" filter="url(#glow)">
        <rect x="0" y="0" width="52" height="64" rx="6" fill="url(#accent)" opacity="0.9" />
        <rect x="8" y="10" width="28" height="3" rx="1.5" fill="#fff" opacity="0.8" />
        <rect x="8" y="18" width="36" height="3" rx="1.5" fill="#fff" opacity="0.6" />
        <rect x="8" y="26" width="22" height="3" rx="1.5" fill="#fff" opacity="0.5" />
        <rect x="8" y="34" width="30" height="3" rx="1.5" fill="#fff" opacity="0.4" />
        <rect x="8" y="46" width="12" height="12" rx="2" fill="#22c55e" opacity="0.8" />
        <rect x="24" y="46" width="12" height="12" rx="2" fill="#f59e0b" opacity="0.7" />
    </g>

    <!-- Title -->
    <text x="80" y="260" font-family="system-ui, -apple-system, 'Segoe UI', sans-serif"
        font-size="56" font-weight="800" fill="#f8fafc" letter-spacing="-1">
        NotesBoard
    </text>

    <!-- Subtitle -->
    <text x="80" y="300" font-family="system-ui, -apple-system, 'Segoe UI', sans-serif"
        font-size="20" fill="#94a3b8" font-weight="400">
        Collaborative Note-Taking Platform
    </text>

    <!-- Accent line -->
    <rect x="80" y="320" width="100" height="4" rx="2" fill="url(#accent)" />

    <!-- Tech badges row 1 -->
    <g transform="translate(80, 355)">
        <rect x="0" y="0" width="72" height="30" rx="15" fill="#1e293b" stroke="#6366f1"
            stroke-width="1" />
        <text x="36" y="20" font-family="system-ui, sans-serif" font-size="12" fill="#a5b4fc"
            text-anchor="middle" font-weight="600">React</text>

        <rect x="82" y="0" width="100" height="30" rx="15" fill="#1e293b" stroke="#6366f1"
            stroke-width="1" />
        <text x="132" y="20" font-family="system-ui, sans-serif" font-size="12" fill="#a5b4fc"
            text-anchor="middle" font-weight="600">TypeScript</text>

        <rect x="192" y="0" width="82" height="30" rx="15" fill="#1e293b" stroke="#6366f1"
            stroke-width="1" />
        <text x="233" y="20" font-family="system-ui, sans-serif" font-size="12" fill="#a5b4fc"
            text-anchor="middle" font-weight="600">Node.js</text>

        <rect x="284" y="0" width="90" height="30" rx="15" fill="#1e293b" stroke="#6366f1"
            stroke-width="1" />
        <text x="329" y="20" font-family="system-ui, sans-serif" font-size="12" fill="#a5b4fc"
            text-anchor="middle" font-weight="600">MongoDB</text>
    </g>

    <!-- Tech badges row 2 -->
    <g transform="translate(80, 395)">
        <rect x="0" y="0" width="104" height="30" rx="15" fill="#1e293b" stroke="#22c55e"
            stroke-width="1" />
        <text x="52" y="20" font-family="system-ui, sans-serif" font-size="12" fill="#86efac"
            text-anchor="middle" font-weight="600">WebSockets</text>

        <rect x="114" y="0" width="55" height="30" rx="15" fill="#1e293b" stroke="#22c55e"
            stroke-width="1" />
        <text x="142" y="20" font-family="system-ui, sans-serif" font-size="12" fill="#86efac"
            text-anchor="middle" font-weight="600">Y.js</text>

        <rect x="179" y="0" width="70" height="30" rx="15" fill="#1e293b" stroke="#22c55e"
            stroke-width="1" />
        <text x="214" y="20" font-family="system-ui, sans-serif" font-size="12" fill="#86efac"
            text-anchor="middle" font-weight="600">Redis</text>

        <rect x="259" y="0" width="115" height="30" rx="15" fill="#1e293b" stroke="#22c55e"
            stroke-width="1" />
        <text x="316" y="20" font-family="system-ui, sans-serif" font-size="12" fill="#86efac"
            text-anchor="middle" font-weight="600">Gemini AI</text>
    </g>

    <!-- Feature highlights -->
    <g transform="translate(80, 460)">
        <circle cx="8" cy="8" r="4" fill="#22c55e" />
        <text x="20" y="13" font-family="system-ui, sans-serif" font-size="14" fill="#cbd5e1">Real-time
            Collaboration</text>

        <circle cx="8" cy="36" r="4" fill="#f59e0b" />
        <text x="20" y="41" font-family="system-ui, sans-serif" font-size="14" fill="#cbd5e1">AI-Powered
            Summarization &amp; Tagging</text>

        <circle cx="8" cy="64" r="4" fill="#6366f1" />
        <text x="20" y="69" font-family="system-ui, sans-serif" font-size="14" fill="#cbd5e1">Analytics
            &amp; Insights Dashboard</text>

        <circle cx="8" cy="92" r="4" fill="#ec4899" />
        <text x="20" y="97" font-family="system-ui, sans-serif" font-size="14" fill="#cbd5e1">Offline-First
            with IndexedDB Sync</text>
    </g>

    <!-- ===== RIGHT SIDE: App Preview Mockup ===== -->
    <g transform="translate(600, 75)" filter="url(#shadow)">
        <!-- Browser frame -->
        <rect x="0" y="0" width="530" height="480" rx="12" fill="#0f172a" stroke="#334155"
            stroke-width="1.5" />

        <!-- Title bar -->
        <rect x="0" y="0" width="530" height="36" rx="12" fill="#1e293b" />
        <rect x="0" y="12" width="530" height="24" fill="#1e293b" />
        <circle cx="20" cy="18" r="5" fill="#ef4444" opacity="0.8" />
        <circle cx="38" cy="18" r="5" fill="#f59e0b" opacity="0.8" />
        <circle cx="56" cy="18" r="5" fill="#22c55e" opacity="0.8" />
        <rect x="140" y="10" width="250" height="16" rx="8" fill="#0f172a" />
        <text x="265" y="22" font-family="system-ui, sans-serif" font-size="9" fill="#64748b"
            text-anchor="middle">notesboard.app</text>

        <!-- Sidebar -->
        <rect x="1" y="36" width="130" height="443" fill="#111827" rx="0" />
        <rect x="1" y="470" width="130" height="9" rx="0" fill="#111827" />

        <!-- Sidebar items -->
        <rect x="12" y="52" width="108" height="28" rx="6" fill="#6366f1" opacity="0.15" />
        <rect x="22" y="62" width="14" height="8" rx="2" fill="#6366f1" opacity="0.7" />
        <rect x="42" y="62" width="60" height="8" rx="2" fill="#a5b4fc" opacity="0.5" />

        <rect x="22" y="96" width="14" height="8" rx="2" fill="#475569" />
        <rect x="42" y="96" width="50" height="8" rx="2" fill="#475569" opacity="0.4" />

        <rect x="22" y="118" width="14" height="8" rx="2" fill="#475569" />
        <rect x="42" y="118" width="70" height="8" rx="2" fill="#475569" opacity="0.4" />

        <rect x="22" y="140" width="14" height="8" rx="2" fill="#475569" />
        <rect x="42" y="140" width="55" height="8" rx="2" fill="#475569" opacity="0.4" />

        <!-- Sidebar section label -->
        <rect x="12" y="170" width="45" height="6" rx="2" fill="#475569" opacity="0.3" />

        <rect x="22" y="190" width="14" height="8" rx="2" fill="#475569" />
        <rect x="42" y="190" width="65" height="8" rx="2" fill="#475569" opacity="0.4" />

        <rect x="22" y="212" width="14" height="8" rx="2" fill="#475569" />
        <rect x="42" y="212" width="48" height="8" rx="2" fill="#475569" opacity="0.4" />

        <!-- Main content area -->
        <!-- Header with title and collab avatars -->
        <rect x="148" y="50" width="200" height="16" rx="4" fill="#e2e8f0" opacity="0.15" />

        <!-- Presence avatars -->
        <circle cx="460" cy="58" r="12" fill="#6366f1" />
        <text x="460" y="62" font-family="system-ui, sans-serif" font-size="10" fill="#fff"
            text-anchor="middle" font-weight="700">R</text>
        <circle cx="480" cy="58" r="12" fill="#22c55e" />
        <text x="480" y="62" font-family="system-ui, sans-serif" font-size="10" fill="#fff"
            text-anchor="middle" font-weight="700">A</text>
        <circle cx="500" cy="58" r="12" fill="#f59e0b" />
        <text x="500" y="62" font-family="system-ui, sans-serif" font-size="10" fill="#fff"
            text-anchor="middle" font-weight="700">M</text>

        <!-- Note cards grid -->
        <!-- Card 1 -->
        <g filter="url(#softShadow)">
            <rect x="148" y="82" width="170" height="120" rx="8" fill="url(#card1)" />
            <rect x="160" y="94" width="90" height="8" rx="2" fill="#e2e8f0" opacity="0.6" />
            <rect x="160" y="110" width="146" height="5" rx="2" fill="#94a3b8" opacity="0.3" />
            <rect x="160" y="120" width="130" height="5" rx="2" fill="#94a3b8" opacity="0.3" />
            <rect x="160" y="130" width="110" height="5" rx="2" fill="#94a3b8" opacity="0.3" />
            <rect x="160" y="140" width="140" height="5" rx="2" fill="#94a3b8" opacity="0.3" />
            <!-- Tag -->
            <rect x="160" y="162" width="48" height="18" rx="9" fill="#6366f1" opacity="0.2" />
            <text x="184" y="175" font-family="system-ui, sans-serif" font-size="9" fill="#a5b4fc"
                text-anchor="middle">work</text>
            <rect x="214" y="162" width="40" height="18" rx="9" fill="#22c55e" opacity="0.2" />
            <text x="234" y="175" font-family="system-ui, sans-serif" font-size="9" fill="#86efac"
                text-anchor="middle">api</text>
            <!-- Live indicator -->
            <circle cx="302" cy="94" r="4" fill="#22c55e">
                <animate attributeName="opacity" values="1;0.4;1" dur="2s" repeatCount="indefinite" />
            </circle>
        </g>

        <!-- Card 2 -->
        <g filter="url(#softShadow)">
            <rect x="330" y="82" width="170" height="120" rx="8" fill="url(#card1)" />
            <rect x="342" y="94" width="75" height="8" rx="2" fill="#e2e8f0" opacity="0.6" />
            <rect x="342" y="110" width="146" height="5" rx="2" fill="#94a3b8" opacity="0.3" />
            <rect x="342" y="120" width="120" height="5" rx="2" fill="#94a3b8" opacity="0.3" />
            <rect x="342" y="130" width="140" height="5" rx="2" fill="#94a3b8" opacity="0.3" />
            <!-- Checklist items -->
            <rect x="342" y="148" width="10" height="10" rx="2" fill="none" stroke="#22c55e"
                stroke-width="1.5" />
            <line x1="344" y1="153" x2="347" y2="156" stroke="#22c55e" stroke-width="1.5" />
            <line x1="347" y1="156" x2="352" y2="149" stroke="#22c55e" stroke-width="1.5" />
            <rect x="358" y="150" width="80" height="5" rx="2" fill="#94a3b8" opacity="0.3" />
            <rect x="342" y="165" width="10" height="10" rx="2" fill="none" stroke="#475569"
                stroke-width="1.5" />
            <rect x="358" y="167" width="65" height="5" rx="2" fill="#94a3b8" opacity="0.3" />
        </g>

        <!-- Card 3 -->
        <g filter="url(#softShadow)">
            <rect x="148" y="215" width="170" height="120" rx="8" fill="url(#card1)" />
            <rect x="160" y="227" width="100" height="8" rx="2" fill="#e2e8f0" opacity="0.6" />
            <!-- Mini chart / analytics sparkline -->
            <polyline
                points="160,280 175,270 190,275 205,260 220,265 235,250 250,255 265,240 280,245 295,230"
                fill="none" stroke="#6366f1" stroke-width="2" stroke-linecap="round" opacity="0.8" />
            <polyline
                points="160,280 175,270 190,275 205,260 220,265 235,250 250,255 265,240 280,245 295,230"
                fill="url(#accent)" stroke="none" opacity="0.1" />
            <!-- Stats -->
            <text x="160" y="310" font-family="system-ui, sans-serif" font-size="18" fill="#6366f1"
                font-weight="700">247</text>
            <text x="200" y="310" font-family="system-ui, sans-serif" font-size="9" fill="#64748b">notes
                this month</text>
        </g>

        <!-- Card 4 - AI suggestion -->
        <g filter="url(#softShadow)">
            <rect x="330" y="215" width="170" height="120" rx="8" fill="url(#card1)" />
            <!-- AI sparkle icon -->
            <g transform="translate(342, 225)">
                <polygon points="8,0 10,6 16,8 10,10 8,16 6,10 0,8 6,6" fill="#f59e0b" opacity="0.8">
                    <animate attributeName="opacity" values="0.8;0.4;0.8" dur="3s"
                        repeatCount="indefinite" />
                </polygon>
            </g>
            <text x="364" y="237" font-family="system-ui, sans-serif" font-size="10" fill="#fbbf24"
                font-weight="600">AI Summary</text>
            <rect x="342" y="250" width="146" height="4" rx="2" fill="#94a3b8" opacity="0.25" />
            <rect x="342" y="259" width="130" height="4" rx="2" fill="#94a3b8" opacity="0.25" />
            <rect x="342" y="268" width="140" height="4" rx="2" fill="#94a3b8" opacity="0.25" />
            <rect x="342" y="277" width="100" height="4" rx="2" fill="#94a3b8" opacity="0.25" />
            <!-- Suggested tags -->
            <text x="342" y="300" font-family="system-ui, sans-serif" font-size="8" fill="#64748b">Suggested
                tags:</text>
            <rect x="342" y="306" width="42" height="16" rx="8" fill="#f59e0b" opacity="0.15" />
            <text x="363" y="317" font-family="system-ui, sans-serif" font-size="8" fill="#fbbf24"
                text-anchor="middle">design</text>
            <rect x="390" y="306" width="52" height="16" rx="8" fill="#f59e0b" opacity="0.15" />
            <text x="416" y="317" font-family="system-ui, sans-serif" font-size="8" fill="#fbbf24"
                text-anchor="middle">frontend</text>
        </g>

        <!-- Bottom bar with editor hints -->
        <rect x="148" y="350" width="352" height="115" rx="8" fill="#111827" stroke="#1e293b"
            stroke-width="1" />
        <!-- Editor toolbar -->
        <rect x="160" y="360" width="20" height="16" rx="3" fill="#334155" />
        <text x="170" y="372" font-family="system-ui, serif" font-size="11" fill="#94a3b8"
            text-anchor="middle" font-weight="700">B</text>
        <rect x="186" y="360" width="20" height="16" rx="3" fill="#334155" />
        <text x="196" y="372" font-family="system-ui, serif" font-size="11" fill="#94a3b8"
            text-anchor="middle" font-style="italic">I</text>
        <rect x="212" y="360" width="20" height="16" rx="3" fill="#334155" />
        <text x="222" y="372" font-family="system-ui, sans-serif" font-size="10" fill="#94a3b8"
            text-anchor="middle">&lt;/&gt;</text>
        <rect x="238" y="360" width="20" height="16" rx="3" fill="#334155" />
        <text x="248" y="372" font-family="system-ui, sans-serif" font-size="11" fill="#94a3b8"
            text-anchor="middle">☰</text>
        <rect x="264" y="360" width="20" height="16" rx="3" fill="#334155" />
        <text x="274" y="372" font-family="system-ui, sans-serif" font-size="11" fill="#94a3b8"
            text-anchor="middle">✓</text>

        <!-- Editor content lines -->
        <rect x="160" y="388" width="300" height="5" rx="2" fill="#e2e8f0" opacity="0.12" />
        <rect x="160" y="400" width="260" height="5" rx="2" fill="#e2e8f0" opacity="0.12" />
        <rect x="160" y="412" width="280" height="5" rx="2" fill="#e2e8f0" opacity="0.12" />
        <rect x="160" y="424" width="200" height="5" rx="2" fill="#e2e8f0" opacity="0.12" />

        <!-- Typing cursor -->
        <rect x="200" y="422" width="2" height="12" fill="#6366f1">
            <animate attributeName="opacity" values="1;0;1" dur="1s" repeatCount="indefinite" />
        </rect>

        <!-- Remote cursor -->
        <g transform="translate(320, 395)">
            <polygon points="0,0 0,12 4,9 8,15 10,14 6,8 10,8" fill="#22c55e" opacity="0.9" />
            <rect x="10" y="6" width="28" height="12" rx="3" fill="#22c55e" opacity="0.85" />
            <text x="24" y="15" font-family="system-ui, sans-serif" font-size="7" fill="#fff"
                text-anchor="middle" font-weight="600">Alex</text>
        </g>
    </g>

    <!-- MERN badge bottom-right -->
    <g transform="translate(1020, 585)">
        <text x="0" y="0" font-family="system-ui, sans-serif" font-size="14" fill="#475569"
            font-weight="500">
            MERN Stack
        </text>
        <rect x="88" y="-12" width="4" height="4" rx="2" fill="#6366f1" />
        <text x="100" y="0" font-family="system-ui, sans-serif" font-size="14" fill="#475569"
            font-weight="500">
            Full-Stack
        </text>
    </g>
</svg>